/* XPM */
static char *_3fd2a69e1614c19874204e40416214eXqNj5vVpdz5LZtR5[] = {
/* columns rows colors chars-per-pixel */
"96 96 65 1 ",
"  c #686763",
". c #6D6D6D",
"X c #706D68",
"o c #7A7673",
"O c #84837F",
"+ c #817F80",
"@ c #838280",
"# c #888483",
"$ c #8A8985",
"% c #8E8D8B",
"& c #908F8B",
"* c #92918E",
"= c #938F90",
"- c #959593",
"; c #989694",
": c #969897",
"> c #9B9A96",
", c #9D9C9A",
"< c #A09E9C",
"1 c #9FA09B",
"2 c #A2A19E",
"3 c #A19FA0",
"4 c #A5A5A3",
"5 c #A8A7A4",
"6 c #A7A8A4",
"7 c #AAA9A6",
"8 c #A6A6A8",
"9 c #A9A7A8",
"0 c #ADADAB",
"q c #B1AEA7",
"w c #B1AFAC",
"e c #AFB0AD",
"r c #B2B1AE",
"t c #B9B6AF",
"y c #AEAFB1",
"u c #B1AFB0",
"i c #AFB1B0",
"p c #B5B4B2",
"a c #B8B6B4",
"s c #B7B8B4",
"d c #BAB9B6",
"f c #B7B5B8",
"g c #B9B7B8",
"h c #BCBCBA",
"j c #C1BEB7",
"k c #C0BFBC",
"l c #BFC0BC",
"z c #C2C1BE",
"x c #BEBEC0",
"c c #C1BFC0",
"v c #BFC1C0",
"b c #C4C3C2",
"n c #C9C6C4",
"m c #C7C8C4",
"M c #CAC9C6",
"N c #CCCCCA",
"B c #D1CFCC",
"V c #D2D1CE",
"C c #D5D4D2",
"Z c #D8D7D3",
"A c #DAD9D6",
"S c #DDDCDA",
"D c #E1DDDA",
"F c #E3E1DD",
"G c #E6E5E1",
/* pixels */
"zb0gderp4,epspi:0mmghgsp80gpra26dqp6hpbiimfxfidpdvgirpdr0prapeh7p3fwarrltezl499cjfhmmld,izsll2zz",
"h4ebhhe00ppg8e08gpgihhgh08bd2t2tder4z4xfgvifsidgshg82drrrae0dhpe4ufft26tlts70w9ffpg0gNe2ddemsrdr",
"0ghee0e40i0e0hg4pNppmigdh,pp27zarddl30fg8hh88eeggiserdzrt7rrg>e44fwds7dl2e6tjhu0fddprs44ds9dsbl6",
"hp1pppps40gpp0gpCmppipggpphp12tdzzaap0py0issgmheiil3rdtrzra7d0rgpbhpedzleqee4pfjzkdppldglgeertrs",
"pdrrtrhgrpdpNggphhhh:2pd,p740zddspdhbprgdddpccffhgh000rzdt2zdl&6rhndehdfls7r4pjthphmdge%peegpghh",
"0sdqr7hpwdrp,0pslx024zprdp<5zdamhgrrieghgpppghu36glzhdhrrqrrre,6ppppph0przpbphrdshzphp6pesegeidr",
"d7N20edrpzz0hrreppr>7ng0hh27prradpdddrslrdppfggp0gerphazzarzr6rrda00rg00mzdM,aza,rppdgsld31egrsg",
"r0q0rd7pppddlpr7p77>pghdp;7fkaaafpdar1lrspggf9fcphgpr0Mrrltzza0dd0ph0p0ddebp7pa0w5sbggegp%hplggp",
"dnpzpggi4pfuhrrrihpg0eppdpfphpdgphhhM25rzlarhhuh0p0>g00gar0add7qatrtr70rrdarrdlqdwjgpupfr>gpblgp",
"2d0gbprpprw0akrt00l86g7rzhrrgpbfbp0fw-qkh00afwgghlz%2pm9qz2rdddddMd2d7dh4ar0edztwakt4q0hwb70p0sl",
"V0-7hggg4h0hprdallg9p0epp0r6Ndpfp#40uhdpzdn7fhfpgegdelsilh5papjqzzrfa0tehwqhrtltjtacp<Nfsp0pgehp",
"h7p4ddi9f,pppNadpeseh,:phafpzhpyj,pbqpjhh0lr5u,9pdNsg6lfhsaz<jjardr7srr7j2tzdrlr9j9t,phqg63ghphp",
"mpdggh0fipipr74d0hhi,4lpr740vpgpkgN93jfjzVpp44hddhg0g0ggf4w9wjawarwrtt5tzjtttqqe39wj0uqdp1ppdphr",
"zhrgygip0yhveprd0fh017vg0r04hygfCatp3pwgddhhf5zkphpgg30pf00pawwqfhp0t$<tajq<17rtqjkc5<ppe-4gpg04",
"egp,iyifyyihrll7ie6i:pplg78ip86attqkc55gppppr65rplegy0fvr45wdtg<fpa>-<55qtq$adaajjutajw<pehcgzd@",
"pghi0fhxxyeh0lrei0ghg0ipp74pm6>rgjjcdpkup0puaaVMpdeppyph7,>wfnjawpw5taqjtqjjzeqr3jjuwt5devmpphsp",
"igrhpp7gh0wfwhhupprd72sdr>>r56zzzpgpgbgpppgpfpMxpihpx8iippvfeg30phpdanatq5tqqrrtsrrs21eetlFBdzVa",
"p640r04rpwwfr05hppzhqzltadd62qzdlehpeprplhhgpxfh03xphvggvg8pppgip70paahjq%qartqqlzr6rlze66rrMddr",
"dregprdpdrka72pMbppddtraddbr>zdzgddrhlddlpphpphufpphp7hpbh86lpbgsih6twbqjatwdtrrrtttzdz72es6qzhd",
"hz0dhdppkfpr2pfhpphmz7ddpp7>rrqagrprph<7lgpphgp5hhpfgpphv0,ip4evsl9ijhMzkzatzdrsrdsllqe7eltrrtad",
"addMna0pfh7wpxucbplsltBtgphpggmdgddlhBf2rddm0hhfph4a4776ihsV110gffsled6gddlllll67d7hehehslrhhzhh",
"t0ttdd0pfprhfhfbsppr2qdeppzp7ddrzhf07f24phb5rdd0krhn2:emg6im0g0s8ieipsdpzzpdsee662%>3seprlldphhh",
"er02rd0zh5dppugpivsgtdzddz80eglgah2%4ppkhkphhwphfphwgppphlgdp0gpfi,ehsi0dedpepe0ppgeiehiegsghhpM",
"rrrzhndp5phfuuwp0greqtzlhlggpebg0pr2hppbdfppg05waprnzpi0lpglghis9h01ipfyee06d0peddrrhpdpdpl64pdb",
"tsdstas0ppdhppgpisfl0rrt7n0bpgfsdkgbk2r7aphdf70h0200ph69epiilgpgg8gpfxippy76hpp6rppp07iigspg6ehd",
"rtrrrr0rhSrnhpffghhpee6rrrgppvpidgN0p0php0rrdrppp>4eg9sNVgsgpglpifmmii0hfxpgg46prgl0pbphbpg6glds",
"rqrrdaprfhgpr4szsdpvdrrdhphupighep0wkhgp0bzhwpph7ppe6lvblghlep1e=pgiff8gpppy0p0p0-2pphgldehgr0gl",
"6d6rrapkrzdz7rp7hlrgstsqupbfgeb0rpdwghr7-pbpp0hhpgg418h0bpdseeg9p7phg7pghyh0pgpge70dvep7p4gmlpzg",
"rzhfpdp70a0dmdtremrlj>qe4k0fgh0hppphgp00ggh440hpr40$,06bghhpegehhippvliyg80800hidze4pphgpphe07gp",
"4rpw4w<dt0trataahptdat>qphpfdpphy6pmpd7dhidnphg,pepp8igspvmh63lblhhhbif9p4ygi80hp20phh0erdiep4pp",
"dphhhawhasprzrerdddzaztdphrnh4wpfyggplppm7dgp44,uh0p:fhii8vi03gsppigv9p88h0ghih,g4h7hpgblsdpr-p0",
"dar0r07p7tazrtsradramqdrfh0r,>0ppgggip0pe0p4hd7<fpf3g0gi:,fh08ehhpi0380ppy88pgpegrhppplbgpggeph0",
"jrd2ztar7sr7r0ppzddzzVdrrepphpdrrrzzdsrlppdfrfr2lrs2iyvpi3400higfh47pp7b8h,0f99yp0pphehgep-pihlx",
"qdtdr0rslleegr74hggppngprgggNmse0jzrqrprh0pwr5trzzed0fipi0hrgfg,<ppkpg5%076pw903ppi6lg9ei0-0gggp",
"6qr7rdr7r7rerdwp0rpp0r4prrpe0emd0aNrw07d9ffhp0pr0rz7xmbyppipgNx0j9uky9mpz0h0>%fugp,sisgephrnpisl",
"tpldqd0rqler7e7wphrppdppzpigh6bltqt6hMp0fu34a6Vr4p7pNhfvhpggnpfi99jky0uhhrprj9ccp7gg61he0lpgggeh",
"prrDdr4ppepe0rp0phh0splprgprp7dekdsr400py048phpppruccxyghr1rgpoijdjuucp=4kjjckcfpxf00lip44hdrdza",
"wdraFgseedelgdpdgps4dplrz0pgpplpapa077uu0-:bgppph64ugxggh>2ahrxNq<k<3c>ywwadgjcu3g34yvghrer0prp0",
"arrdhppi060hpr0dppe7eplrephhpsggt2hgg94pfiiv0ppparnbcfhgp7rrdnhNkrwcufighbpjp9n0pxfhhhppap05rrrr",
"pkz0ppp1pp6hpd0fh06ghgppdgegggderrpp098mvh334Nhpdp,umbbgd6dmzabzpw3hf08ikba7;puk8x0fbgdphhd6a0al",
"2arrp0d03hgpdgrpghgepp0lBaph0gbidhg1:1fgvpyiunxu7=fxhggblsldlzd0yiv8fsivlli6s483fu45hzhhhdhnMndr",
"rt0r4e6,10ehV6rddhpl0ipsfghlrr0h6p0104phfihfhpwpg09yfggidl7re1drssfvvhvslFsis:8fup9,zhfakdMphgrr",
"0satpe>ppd7zphgsChdeNripkr7wlgpepl0:>,ddnrppwrafpp8449iirpldzsrglsv0vfiiei0lss0ip00pzhpahzhhl0hh",
"tdaarppprdp0hrhshpilVgpeppwheplh4,ghlrhdbp:4pwzjhppihxgibpdlNzgpNlvfvviil66i8sls>wpwpphdMhddphp7",
"tlsesrezrd0appnr16ppplzphbhhrhkd14phbMhpphprdpfrpzz0ipgph0ppNb073fiviv8iss60gei94,aaddrdhdg7gdps",
"27eqrslet2rap:zd6ggdhhdbh2harp5dphdrgpp0g0gg0rpkd7pp3fvh0vNprng:llilxi:sl1llhms9wddrt2dkzpibihhs",
"t2llttzla0aahrklgbrgp,pgh04prdr6ihdpddzg7hp7fpd567p*8pmhhhhpfguchhvhfyiilellgegrrpa6r2z6ppgbpgip",
"7ss6lllladraarpspgp0pp0pg4pdd70rphgpgphdhp4ddnhpznpf8pv8ge04px9fiiiffhelCll1pgvrwnwddz2qph6ph88p",
"lrsdlllpgh0e0,pplgpp6,gdderrrrr0Npfpivgypmrmzdrjdzd27rdrdhdphhyb<fhfpjfhzpp0phcgidhbsgpegr0rpg0N",
"7lppphpe6g6v%2pwpp6i0pph7rdrrzrrrhpmghx00hdzdrh6rddzqdaamdVd77u:upjckc40rphbhhhblhhedhhsegdddhzM",
"p916eg-igshpppghNpggbblzadVdd00srdmiiy003y2arr6>2tdzzNzldqdakfk3xugcfw9nhpdbgbpfh3ehiipgldhgdrgz",
"egepel3pheepddrde0ephg04phspqpddprhepypigprr07>qtzttmlztnNdzNhkhngcu5pfw0lgbxpfvdgpgrhhepzphgrdp",
"p6hei6ppgpgppz4r0ieeeri84dsrd-4dZhsdpg43py40qrraztzlttslVzrrpaaafgchgaqg0ddpr0xi63pihpp3hpgpdhd0",
"he316604dpeg0pgpefihh::feg0004egd0hglgp3i0hya6ezqlddrzztzddahkrzufxykjktahVkpffy46eepgN46plhzpkg",
"p9e0pgph69gphrrp9ff00ppi6s0gp00Vprlhelhd,0pptldtlzrqtzztzdrazh2wufp3jcjtrddtppfi0gh0phe-6lhprprd",
"dils08p0s6pppppdipCfp0iih0rpgeNNggegislg80pNzrl7rrdzlzzrqjrt6dnhhg0uujj2t7tNfpif18lhpee0pdbgnwld",
"gr0re-7esp:errplphh98g,ffiNhgphxrl4-pgh0ashzSrasgvfihggedrppiphppm3guhjaz>zgfgp8:p0slp0pphhrdd2a",
"pr7rpmlegh-eeplegpb9pfi0f9y,fixhd1,hip96ra4wz<are0iihh7vhevpgpplixyphp55q0d0ipyishimgigg0gggre22",
"777st7rege7teserpwprg0ihvifgi0pfe44hle607Nr2r0tp080yffihpgepfsfgpf55uhq5rtpp3ivgpglhh0hgpgdrtlsd",
"rsss7eds6lee76rd,p0rp9iefgvfpypye-prhg067t22adathh08iss0pp84ifhigu9fhp95rdigy0pppvNhii8iigppstdl",
"5r2wd7r7raadt76ld7fhzn5plegpy0yykd00pe72tbw*rtzdmgphiiepiffbvpfirpwpg73%0fmfp70ppegp809vgigd6rqt",
">q0>7q2tldserrrrgpr0gz0rpevhyfp7hr2ppg1&a5<dzdddiglpedphggyNvgivah40ppuxk4h>0phphdgi.,hfNpgeatzl",
"2aqaqr7rqrrthtq20rp4ere0g098xppmd0dnal0l52qkjzsds7ppddhssphhg0,xwzbhfhiyyfpgrd6rehihiffilfpzlltd",
"jqazr;2>2rzeMst7pp0hwdghg08imxpppdrrrdazd<qawjtserldelfihsihigpifr0gfbx89bihdsrpgiplviy3d0amd2td",
"taq<qw5qdpdtwjk5jkpgpggff3fgggihnnwphpp0:rhhhprt7dh46lppphpp8hhghgpygvy3yi8yvghivg6h0&0pppp7drlp",
"jkj5<3jadh7aqpjjcBuwppx0iigpbhhgdppBuj0gfppbmhdahgNp17ghb7hgpig3h88i8pvpN03ixhifgmmi8rgglphdphpl",
"qnq<wt5w5fuwtq5tffkwwpfphpxfvpgprw4pqwpgg0pgpzzaepg72ezl5rdgegggle*ibg8pN9gii9yggNvh4:0pepppbbpd",
"jtt=dpfwuhnjp3q35uh9kfwwyp9fpphppagnhhk09ifvard2$7rpglpldn0phgigigiiggvivispgpi3i1ibe,vhgde-pzrp",
"z<atqwhp3kVpqt<o7kzja57zd0d0p7pp0rfzhhhdhiucgrar,hppzddpdp054<whlbpp0lgghxpgg8b0gre6ihlehz0<7rdp",
"t5krjfw5p0pfaw=52tar00ahzprap7wph7aar7zrxigggpadhb4w7ppSzdr2pgphppp69iisihfggg8pgghv0VZgfzgpfpdh",
"qarqfp0u0gukjw355ada7jSwzdaasagdaw57r0tap0xurzdN0f7yhpp4p<hapwhhgpdrsgggddghgerpep&6egVhzzN0rnfh",
"jarrfwzwkjuuautkjqdrrrhhpp2rzprhhkrrzCragh0xh7rrucgpwhg5d4aragmdpdbdsgde04p76-*drg6b$864khhkpzzr",
"w9awprzar707hphkjjtq5-kjz70t0tzshhkufhhhfwhkd67a0fhczhgpa04dpprdghVbpdAp7pdp6:6pppp20rrrhpb4,pwp",
"wjpwprhhprph50phuqc3aqhhdzzrrrzr3huk5hBtaufh00druuff0dhhppqhzfhrph0,7dhpppw0tr0z80wdpMpr0fnp>phh",
"apwcqrrdbd0ap0wdjwjajjp0ah0pzrdduwwp7MDaaw0r60rr0<bwppphppdhmhge4pp,rd*sdh%2daaZ0rdwzfddkrrp00nk",
"pjpgdddw0rhpp0hhuj3tCjpwz4rw2azwh9hfqwtpwp0r6arrwu9fpdprfk0zdhhew767rsdt6rrddzdqdgrdpdahprzrdkhh",
"9jufwaardakddrpd5jj9fpwuhbdhzhrpfchp<<qjMtwupdrr0w,4degs6rdphpffw7ddddzdrdrd0tdtrrrz2ts7ttddzfrm",
"puCwqr0w7rdr7dggj>93qwpppp0dr5,ruuu53jqutwuapd0tfhdgkp0e>hpghdpxh0dzrtdaaqratrd7-pr0aal62zrdrzdV",
"0wwwhwwrrraaggggjjj94pwp00041-d7np9wjjjtqjt;redrw04hzrpprpp0ghpgpara67trrdd60z71tr2zzrs6rezqhztr",
"uw03q7r5a0te7endf9jjp00ped0hpehhg3wkkw39juwcndathw7bp21er70ppghhf0rd07ztdatrrrtrz0tqt0rtdradrthh",
"qq3qwjkwprqrzwdwjjj9akjapfaw7rfhlpghlsee77:gMzz0rttmarr6rhhkhrhgpdr0zrrawp4phg0prr0r0jfkj0kkfhg0",
"jktwkqtwwa7kpwwjjucukap2dha>-whhlpgpppsele0Ndqr0rBrraqrh0hzdrprr2d7d0d7d0d7hgwcprettfhkjh9k7hwhg",
"tBtqt3<trzrtwjaakjjjwddd2tr60rrw6glrphbpNshkdqr6lFdzzarr0khrdp0r7dr02rtlrhhrrzpzpprh0Nhhfbufgppg",
"qtqqj5jjdzarrpwp5ccudjpkdzafrbhrder01glgz>azr26>zzdtrzddpd0d4,pdphradr2z50pzgpkpdrkzdbk,ubkdppl0",
"uq9qDjjqdtadcgq5jfcjjpaqgjj3dhardt7rsrllj0qrarqpzdhs0zwhp>rrrepr75pp&2rldr0an4rpp0ifg30prfpprldb",
"qtjujq55qqhrjqwpu9aa5w9tpgku7rtrz2q7rqtrrrlzsratarraafpdrhhpr7er4pdgrjqrpp70-gpp,40fpp4ppgdp7hpp",
"ut5q<<3ww5qdkqtqjwau9at<<jjjjaMa0arsd2tlqtrtztthj470hrdzrakaart2rhp72zrrddwkr7d00%0ipp837rw0phrg",
"qjqq&Xqqta5j3ktwtjwtw9wjqtwtjjbtel7qrtr;dztztrtaha4zhprhapp0rsrt70r<rrrzhap0n5,afxfy6hfyhrh0pppz",
"jjww5<q-7jaqqftdpwckjjkjkjjkujkjq7dr2ldsjjjtq<q;w<ujwau3serllz2t4azztd2t*z0qhpp0iip0pghfhdrpwwh0",
"jkc9t5q9t7Bta5pwVnZcwujjaakc5uqjzar7trtd<3q5wqajnp9<ja9ftd7datlrzp0rrr$2rartddh0iffppwrppbh7bpfp",
"fNk0hpdjqreraqwrcajjwa<5tjakq5u90adszqtt5=wkqqjwjqwtut3kdrqqazd&adqdzqtlzrrq6ppp0mhpphwwrrgpdprr",
"wjkktfjhdaatq<5hdtajjujtttajqjjjtadsqle2qwjwjjajkqukwq9t7>2tzCzrr26dr07srqrO0,0phgp40wrapd0bk55p",
"hgghhkw0pp>,t1;mw0rajjpwtjnkj99tzrdt7q7qkbw5w2qjj5qjqqju2*Blrrsetda62t7at26>77hamd02>fdfgphh0hhl",
"pe04pbw50dprqlde0dttt5tjttjj5qtj>srr-aqttt2qgpjq5j<kjj<ud2rl7zaperae0r22rzh6r<Shper7qwppmnr07kpp",
"i8hp7hp7pph,rppsqsds5kj<=qj;<aw9tsrrzdzzttddwjkjjqqjzCq<q ;r7qdg0rqd0eztdara50fhqhqrqtkrp4p-hphx",
"g0:pghpp7h0sedll7ssswjj<tqq5<tt5qrart60ra2qztttj5qjjzN9tr7estzgezMt*lrqd*rzh00whzt5zq5ztrrphgreh"
};
